# Blender v2.80 (sub 75) OBJ File: 'paper_plane.blend'
# www.blender.org
o Plane_Plane.001
v 0.769748 0.370768 1.048660
v 0.813209 0.318059 0.456011
v 0.133531 0.168138 -0.993220
v 0.041183 0.182674 1.000000
v 0.037187 0.164944 -1.000000
v 0.078419 0.347850 1.000000
v 0.018593 0.082471 -1.000000
v 0.077403 0.218997 -0.069529
v 0.047430 0.167586 -0.872566
v 0.769748 0.370768 1.048660
v 0.813209 0.318059 0.456011
v 0.133531 0.168138 -0.993220
v 0.041183 0.182674 1.000000
v 0.037187 0.164944 -1.000000
v 0.078419 0.347850 1.000000
v 0.018593 0.082471 -1.000000
v 0.077403 0.218997 -0.069529
v 0.047430 0.167586 -0.872566
v 0.769748 0.370768 1.048660
v 0.813209 0.318059 0.456011
v 0.133531 0.168138 -0.993220
v 0.041183 0.182674 1.000000
v 0.037187 0.164944 -1.000000
v 0.078419 0.347850 1.000000
v 0.018593 0.082471 -1.000000
v 0.077403 0.218997 -0.069529
v 0.047430 0.167586 -0.872566
v -0.769748 0.370768 1.048660
v 0.000000 0.235274 0.821491
v 0.000000 0.108394 -0.922100
v -0.813209 0.318059 0.456011
v -0.133531 0.168138 -0.993220
v -0.041183 0.182674 1.000000
v 0.000000 -0.000000 0.754539
v -0.037187 0.164944 -1.000000
v -0.078419 0.347850 1.000000
v -0.018593 0.082471 -1.000000
v 0.000000 -0.000000 -0.885622
v -0.077403 0.218997 -0.069529
v -0.047430 0.167586 -0.872566
v -0.769748 0.370768 1.048660
v 0.000000 0.235274 0.821491
v 0.000000 0.108394 -0.922100
v -0.813209 0.318059 0.456011
v -0.133531 0.168138 -0.993220
v -0.041183 0.182674 1.000000
v 0.000000 -0.000000 0.754539
v -0.037187 0.164944 -1.000000
v -0.078419 0.347850 1.000000
v -0.018593 0.082471 -1.000000
v 0.000000 -0.000000 -0.885622
v -0.077403 0.218997 -0.069529
v -0.047430 0.167586 -0.872566
v -0.769748 0.370768 1.048660
v 0.000000 0.235274 0.821491
v 0.000000 0.108394 -0.922100
v -0.813209 0.318059 0.456011
v -0.133531 0.168138 -0.993220
v -0.041183 0.182674 1.000000
v 0.000000 -0.000000 0.754539
v -0.037187 0.164944 -1.000000
v -0.078419 0.347850 1.000000
v -0.018593 0.082471 -1.000000
v 0.000000 -0.000000 -0.885622
v -0.077403 0.218997 -0.069529
v -0.047430 0.167586 -0.872566
vt 0.000000 0.298287
vt 0.838970 1.000000
vt 0.660398 0.000000
vt 0.000000 0.753099
vt 0.746937 1.000000
vt 1.000000 0.122730
vt 0.821658 0.000000
vt 1.000000 0.000000
vt 0.919486 1.000000
vt 1.000000 0.942811
vt 1.000000 1.000000
vt 0.000000 0.298287
vt 0.838970 1.000000
vt 0.660398 0.000000
vt 0.000000 0.753099
vt 0.746937 1.000000
vt 1.000000 0.122730
vt 0.821658 0.000000
vt 1.000000 0.000000
vt 0.919486 1.000000
vt 1.000000 0.942811
vt 1.000000 1.000000
vt 0.838970 1.000000
vt 0.746937 1.000000
vt 0.000000 0.298287
vt 0.000000 0.753099
vt 1.000000 0.122730
vt 1.000000 0.000000
vt 0.821658 0.000000
vt 1.000000 0.942811
vt 0.919486 1.000000
vt 1.000000 1.000000
vt 0.838970 1.000000
vt 0.746937 1.000000
vt 0.000000 0.298287
vt 0.000000 0.753099
vt 0.821658 0.000000
vt 0.919486 1.000000
vt 0.838970 1.000000
vt 0.746937 1.000000
vt 0.000000 0.298287
vt 0.000000 0.753099
vt 0.821658 0.000000
vt 0.919486 1.000000
vt 0.000000 0.298287
vt 0.838970 1.000000
vt 0.660398 0.000000
vt 0.000000 0.753099
vt 0.746937 1.000000
vt 0.821658 0.000000
vt 0.919486 1.000000
vt 0.000000 0.000000
vt 0.605769 1.000000
vt 0.000000 0.000000
vt 0.605769 1.000000
vt 0.000000 0.000000
vt 0.660398 0.000000
vt 0.605769 1.000000
vt 0.000000 0.000000
vt 0.660398 0.000000
vt 0.605769 1.000000
vt 0.000000 0.000000
vt 0.660398 0.000000
vt 0.605769 1.000000
vt 0.000000 0.000000
vt 0.605769 1.000000
vn -0.0266 0.9955 -0.0905
vn 0.0908 -0.9940 0.0603
vn -0.9764 -0.0591 0.2078
vn -0.9755 0.2199 0.0000
vn -0.9753 -0.0704 -0.2093
vn 0.0266 -0.9955 0.0905
vn -0.0908 0.9940 -0.0603
vn 0.9764 0.0591 -0.2078
vn 0.9755 -0.2199 -0.0000
vn 0.9753 0.0704 0.2093
vn 0.0266 0.9955 -0.0905
vn -0.0908 -0.9940 0.0603
vn 0.9764 -0.0591 0.2078
vn 0.9755 0.2199 0.0000
vn 0.9753 -0.0704 -0.2093
vn -0.0266 -0.9955 0.0905
vn 0.0908 0.9940 -0.0603
vn -0.9764 0.0591 -0.2078
vn -0.9755 -0.2199 -0.0000
vn -0.9753 0.0704 0.2093
s off
f 2/1/1 5/2/1 6/3/1
f 8/4/2 3/5/2 2/1/2
f 34/6/3 4/7/3 29/8/3
f 34/6/4 4/7/4 6/3/4
f 7/9/5 38/10/5 30/11/5
f 11/12/1 14/13/1 15/14/1
f 17/15/2 12/16/2 11/12/2
f 47/17/3 13/18/3 42/19/3
f 47/17/4 13/18/4 15/14/4
f 16/20/5 51/21/5 43/22/5
f 23/23/6 21/24/6 20/25/6
f 21/24/7 26/26/7 20/25/7
f 60/27/8 55/28/8 22/29/8
f 60/27/9 64/30/9 23/23/9
f 25/31/10 56/32/10 64/30/10
f 35/33/11 32/34/11 31/35/11
f 32/34/12 39/36/12 31/35/12
f 34/6/13 29/8/13 33/37/13
f 34/6/14 38/10/14 35/33/14
f 37/38/15 30/11/15 38/10/15
f 48/39/11 45/40/11 44/41/11
f 45/40/12 52/42/12 44/41/12
f 47/17/13 42/19/13 46/43/13
f 47/17/14 51/21/14 48/39/14
f 50/44/15 43/22/15 51/21/15
f 57/45/16 61/46/16 62/47/16
f 65/48/17 58/49/17 57/45/17
f 60/27/18 59/50/18 55/28/18
f 60/27/19 59/50/19 62/47/19
f 63/51/20 64/30/20 56/32/20
f 6/3/1 1/52/1 2/1/1
f 2/1/1 3/5/1 5/2/1
f 8/4/2 9/53/2 3/5/2
f 6/3/4 5/2/4 34/6/4
f 5/2/4 7/9/4 38/10/4
f 34/6/4 5/2/4 38/10/4
f 15/14/1 10/54/1 11/12/1
f 11/12/1 12/16/1 14/13/1
f 17/15/2 18/55/2 12/16/2
f 15/14/4 14/13/4 47/17/4
f 14/13/4 16/20/4 51/21/4
f 47/17/4 14/13/4 51/21/4
f 20/25/6 19/56/6 24/57/6
f 24/57/6 23/23/6 20/25/6
f 21/24/7 27/58/7 26/26/7
f 25/31/9 23/23/9 64/30/9
f 23/23/9 24/57/9 60/27/9
f 24/57/9 22/29/9 60/27/9
f 31/35/11 28/59/11 36/60/11
f 36/60/11 35/33/11 31/35/11
f 32/34/12 40/61/12 39/36/12
f 37/38/14 35/33/14 38/10/14
f 35/33/14 36/60/14 34/6/14
f 36/60/14 33/37/14 34/6/14
f 44/41/11 41/62/11 49/63/11
f 49/63/11 48/39/11 44/41/11
f 45/40/12 53/64/12 52/42/12
f 50/44/14 48/39/14 51/21/14
f 48/39/14 49/63/14 47/17/14
f 49/63/14 46/43/14 47/17/14
f 62/47/16 54/65/16 57/45/16
f 57/45/16 58/49/16 61/46/16
f 65/48/17 66/66/17 58/49/17
f 62/47/19 61/46/19 60/27/19
f 61/46/19 63/51/19 64/30/19
f 60/27/19 61/46/19 64/30/19
