# Blender v2.80 (sub 75) OBJ File: 'paper_plane.blend'
# www.blender.org
o Plane_Plane.001
v 0.077400 0.021591 0.110585
v 0.002347 0.002911 -0.095543
v 0.004606 0.001451 0.104703
v 0.081741 0.019858 0.051111
v 0.013832 0.011653 -0.094382
v 0.004207 0.011144 -0.095070
v 0.008330 0.017942 0.105650
v 0.006290 0.017141 -0.002051
v 0.003469 0.012411 -0.082386
v 0.081741 0.019858 0.051111
v 0.013832 0.011653 -0.094382
v 0.008330 0.017942 0.105650
v 0.004207 0.011144 -0.095070
v 0.077400 0.021591 0.110585
v 0.004606 0.001451 0.104703
v 0.002347 0.002911 -0.095543
v 0.082063 0.019476 0.051117
v 0.014155 0.011271 -0.094376
v 0.008652 0.017559 0.105656
v 0.004529 0.010762 -0.095064
v 0.077722 0.021209 0.110591
v 0.004929 0.001069 0.104709
v 0.000810 -0.015762 0.079157
v 0.002670 0.002528 -0.095536
v 0.000810 -0.006361 -0.084590
v 0.081744 0.020357 0.051081
v 0.013835 0.012152 -0.094412
v 0.003471 0.012910 -0.082416
v 0.006293 0.017640 -0.002080
v 0.001860 0.002881 -0.095649
v 0.004118 0.001416 0.104805
v -0.077400 0.021591 0.110585
v 0.000000 0.007726 0.087183
v 0.000000 0.005052 -0.087617
v 0.000000 -0.015379 0.079150
v -0.002347 0.002911 -0.095543
v -0.004606 0.001451 0.104703
v 0.000000 -0.005978 -0.084596
v -0.081741 0.019858 0.051111
v -0.013832 0.011653 -0.094382
v -0.004207 0.011144 -0.095070
v -0.008330 0.017942 0.105650
v -0.006290 0.017141 -0.002051
v -0.003469 0.012411 -0.082386
v -0.081741 0.019858 0.051111
v -0.013832 0.011653 -0.094382
v -0.008330 0.017942 0.105650
v -0.004207 0.011144 -0.095070
v -0.077400 0.021591 0.110585
v -0.004606 0.001451 0.104703
v 0.000000 -0.015379 0.079150
v -0.002347 0.002911 -0.095543
v 0.000000 -0.005978 -0.084596
v -0.082063 0.019476 0.051117
v -0.014155 0.011271 -0.094376
v -0.008652 0.017559 0.105656
v -0.004529 0.010762 -0.095064
v -0.077722 0.021209 0.110591
v -0.004929 0.001069 0.104709
v -0.000810 -0.015762 0.079157
v -0.002670 0.002528 -0.095536
v -0.000810 -0.006361 -0.084590
v -0.081744 0.020357 0.051081
v -0.013835 0.012152 -0.094412
v -0.003471 0.012910 -0.082416
v -0.006293 0.017640 -0.002080
v 0.000000 0.005023 -0.087723
v -0.001860 0.002881 -0.095649
v 0.000000 -0.006008 -0.084703
v 0.000000 0.007690 0.087285
v 0.000000 -0.015415 0.079252
v -0.004118 0.001416 0.104805
vt 0.000000 0.000000
vt 0.000000 0.000000
vt 0.000000 0.000000
vt 0.000000 0.000000
vt 0.000000 0.000000
vt 0.000000 0.000000
vt 0.000000 0.000000
vt 0.000000 0.000000
vt 0.000000 0.000000
vt 0.000000 0.000000
vt 0.000000 0.000000
vt 0.000000 0.000000
vt 0.000000 0.000000
vt 0.000000 0.000000
vt 0.000000 0.000000
vt 0.000000 0.000000
vt 0.000000 0.000000
vt 0.000000 0.000000
vt 0.000000 0.000000
vt 0.000000 0.000000
vt 0.000000 0.000000
vt 0.821658 0.000000
vt 1.000000 0.122730
vt 0.821658 0.000000
vt 1.000000 0.942811
vt 0.919486 1.000000
vt 1.000000 0.942811
vt 0.000000 0.000000
vt 0.000000 0.000000
vt 0.000000 0.000000
vt 0.746937 1.000000
vt 0.000000 0.298287
vt 0.746937 1.000000
vt 1.000000 0.122730
vt 1.000000 0.942811
vt 0.838970 1.000000
vt 0.746937 1.000000
vt 0.000000 0.298287
vt 0.000000 0.000000
vt 0.000000 0.000000
vt 0.000000 0.000000
vt 0.000000 0.000000
vt 0.746937 1.000000
vt 0.000000 0.753099
vt 0.000000 0.298287
vt 0.000000 0.000000
vt 0.000000 0.000000
vt 0.000000 0.000000
vt 0.919486 1.000000
vt 1.000000 0.942811
vt 1.000000 1.000000
vt 0.000000 0.000000
vt 0.000000 0.000000
vt 1.000000 0.122730
vt 0.821658 0.000000
vt 1.000000 0.000000
vt 0.000000 0.000000
vt 0.000000 0.000000
vt 0.000000 0.000000
vt 0.000000 0.000000
vt 1.000000 0.122730
vt 0.000000 0.000000
vt 0.919486 1.000000
vt 0.000000 0.000000
vt 0.000000 0.000000
vt 0.000000 0.000000
vt 0.000000 0.000000
vt 0.000000 0.000000
vt 0.000000 0.000000
vt 0.000000 0.000000
vt 0.000000 0.000000
vt 0.000000 0.000000
vt 0.000000 0.000000
vt 0.000000 0.000000
vt 0.000000 0.000000
vt 0.000000 0.000000
vt 0.000000 0.000000
vt 0.000000 0.000000
vt 0.000000 0.000000
vt 0.000000 0.000000
vt 0.000000 0.000000
vt 0.000000 0.000000
vt 0.000000 0.000000
vt 0.821658 0.000000
vt 0.919486 1.000000
vt 0.919486 1.000000
vt 0.000000 0.000000
vt 0.000000 0.000000
vt 0.000000 0.000000
vt 0.746937 1.000000
vt 0.000000 0.298287
vt 0.000000 0.298287
vt 1.000000 0.122730
vt 0.821658 0.000000
vt 0.660398 0.000000
vt 0.000000 0.298287
vt 0.838970 1.000000
vt 0.000000 0.000000
vt 0.000000 0.000000
vt 0.000000 0.000000
vt 0.000000 0.000000
vt 0.000000 0.753099
vt 0.746937 1.000000
vt 0.000000 0.298287
vt 0.000000 0.000000
vt 0.000000 0.000000
vt 0.919486 1.000000
vt 0.821658 0.000000
vt 0.000000 0.000000
vt 0.000000 0.000000
vt 0.000000 0.000000
vt 0.000000 0.000000
vt 0.000000 0.000000
vt 0.000000 0.298287
vt 0.919486 1.000000
vt 0.660398 0.000000
vt 0.821658 0.000000
vt 0.605769 1.000000
vt 0.821658 0.000000
vt 0.746937 1.000000
vt 0.919486 1.000000
vt 1.000000 0.942811
vt 0.746937 1.000000
vt 0.605769 1.000000
vn -0.4051 -0.8635 -0.3003
vn -0.4158 -0.8772 0.2402
vn 0.0000 0.0000 1.0000
vn -0.7573 -0.0342 -0.6521
vn 0.0690 0.0416 -0.9967
vn 0.2020 0.1542 -0.9672
vn 0.9755 -0.2196 -0.0126
vn 0.0504 -0.9982 0.0328
vn -0.0690 -0.0416 0.9967
vn -0.0691 -0.0416 0.9967
vn -0.4258 -0.9033 -0.0519
vn -0.2694 -0.7837 0.5596
vn 0.7640 0.6442 0.0370
vn 0.0055 0.9982 -0.0589
vn -0.5765 0.0515 0.8155
vn -0.9994 0.0078 0.0346
vn -0.9753 -0.0583 -0.2131
vn -0.0119 0.9644 -0.2641
vn -0.9764 -0.0710 0.2041
vn 0.0020 0.9416 0.3368
vn 0.1892 0.1754 0.9661
vn -0.9753 0.2184 0.0320
vn -0.0504 0.9982 -0.0328
vn -0.2319 -0.7355 -0.6366
vn 0.9707 0.0789 -0.2270
vn 0.9615 0.0726 0.2651
vn 0.0500 0.0586 0.9970
vn -0.0501 -0.0586 -0.9970
vn 0.8595 0.2943 -0.4178
vn -0.0055 -0.9982 0.0589
vn 0.4051 -0.8635 -0.3003
vn 0.4158 -0.8772 0.2402
vn 0.7573 -0.0342 -0.6521
vn -0.0691 0.0416 -0.9967
vn -0.2020 0.1542 -0.9672
vn -0.9755 -0.2196 -0.0126
vn -0.0504 -0.9982 0.0328
vn -0.0690 0.0416 -0.9967
vn 0.0690 -0.0416 0.9967
vn 0.4258 -0.9033 -0.0519
vn 0.2694 -0.7837 0.5596
vn -0.7639 0.6442 0.0370
vn -0.0055 0.9982 -0.0589
vn 0.5765 0.0515 0.8155
vn 0.9994 0.0078 0.0346
vn 0.9753 -0.0583 -0.2131
vn 1.0000 0.0000 0.0000
vn 0.0119 0.9644 -0.2641
vn 0.9764 -0.0710 0.2041
vn -0.0376 0.9439 0.3281
vn -0.1892 0.1754 0.9661
vn 0.9690 0.2467 0.0142
vn 0.0504 0.9982 -0.0328
vn 0.2319 -0.7355 -0.6366
vn -0.9707 0.0789 -0.2270
vn -0.9615 0.0726 0.2651
vn -0.0500 0.0586 0.9970
vn 0.0501 -0.0586 -0.9970
vn -0.8595 0.2943 -0.4178
vn 0.0055 -0.9982 0.0589
vn 0.0691 0.0416 -0.9967
vn 0.0690 0.0417 -0.9967
vn 0.7639 0.6442 0.0370
vn 0.0048 0.9983 -0.0589
vn -0.0007 0.9653 -0.2610
vn 0.0376 0.9439 0.3281
vn -0.9723 0.2335 0.0121
vn -0.9747 0.2218 -0.0289
vn -0.9690 0.2467 0.0142
vn -0.2320 -0.7354 -0.6366
vn -0.0048 -0.9983 0.0589
vn -0.0690 0.0417 -0.9967
vn 0.0691 -0.0416 0.9967
vn -0.7640 0.6442 0.0370
vn -0.0048 0.9983 -0.0589
vn 0.0007 0.9653 -0.2610
vn -0.0020 0.9416 0.3368
vn 0.9747 0.2218 -0.0289
vn 0.9723 0.2335 0.0121
vn 0.9753 0.2184 0.0320
vn 0.2320 -0.7354 -0.6366
vn 0.0048 -0.9983 0.0589
s off
f 71/1/1 51/2/1 23/3/1
f 25/4/2 53/5/2 69/6/2
f 1/7/3 12/8/3 14/9/3
f 6/10/3 11/11/3 13/12/3
f 5/13/4 28/14/4 27/15/4
f 16/16/5 20/17/5 24/18/5
f 16/16/6 24/18/6 30/19/6
f 7/20/3 15/21/3 12/8/3
f 3/22/3 51/23/3 15/24/3
f 38/25/3 16/26/3 53/27/3
f 4/28/3 14/9/3 10/29/3
f 2/30/3 13/12/3 16/16/3
f 5/31/3 10/32/3 11/33/3
f 23/34/7 25/35/7 20/36/7
f 20/36/8 18/37/8 17/38/8
f 11/11/5 20/17/5 13/12/5
f 14/9/9 19/39/9 21/40/9
f 15/21/10 19/39/10 12/8/10
f 51/2/11 25/4/11 23/3/11
f 22/41/12 71/1/12 23/3/12
f 10/29/13 21/40/13 17/42/13
f 27/43/14 29/44/14 26/45/14
f 4/28/15 29/46/15 8/47/15
f 8/47/16 28/14/16 9/48/16
f 30/49/17 69/50/17 67/51/17
f 2/30/18 67/52/18 34/53/18
f 71/54/19 31/55/19 70/56/19
f 3/57/20 70/58/20 31/59/20
f 15/21/21 31/59/21 22/41/21
f 51/2/22 15/21/22 12/8/22
f 10/29/23 13/12/23 12/8/23
f 69/6/24 24/18/24 25/4/24
f 33/60/25 3/57/25 35/61/25
f 34/53/26 38/62/26 2/63/26
f 26/64/27 10/29/27 17/42/27
f 18/65/28 11/11/28 27/15/28
f 18/65/29 26/45/29 17/42/29
f 8/47/30 5/13/30 4/28/30
f 71/1/31 60/66/31 51/2/31
f 62/67/32 69/6/32 53/5/32
f 32/68/3 47/69/3 42/70/3
f 41/71/3 46/72/3 40/73/3
f 40/73/33 65/74/33 44/75/33
f 52/76/34 57/77/34 48/78/34
f 52/76/35 68/79/35 61/80/35
f 42/70/3 50/81/3 37/82/3
f 35/83/3 53/5/3 38/62/3
f 37/84/3 51/23/3 35/61/3
f 38/25/3 52/85/3 36/86/3
f 39/87/3 49/88/3 32/68/3
f 36/89/3 48/78/3 41/71/3
f 40/90/3 45/91/3 39/92/3
f 60/93/36 59/94/36 56/95/36
f 54/96/37 57/97/37 56/95/37
f 57/77/38 46/72/38 48/78/38
f 49/88/39 56/98/39 47/69/39
f 56/98/39 50/81/39 47/69/39
f 51/2/40 62/67/40 53/5/40
f 71/1/41 59/99/41 60/66/41
f 45/100/42 58/101/42 49/88/42
f 66/102/43 64/103/43 63/104/43
f 66/105/44 39/87/44 43/106/44
f 65/74/45 43/106/45 44/75/45
f 68/107/46 67/51/46 69/50/46
f 38/62/47 67/52/47 34/53/47
f 67/52/48 36/89/48 34/53/48
f 71/54/49 70/56/49 72/108/49
f 37/82/50 70/58/50 33/60/50
f 33/60/47 71/1/47 35/83/47
f 50/81/51 59/99/51 72/109/51
f 51/2/52 53/5/52 48/78/52
f 48/78/53 46/72/53 45/100/53
f 61/80/54 69/6/54 62/67/54
f 33/60/55 35/61/55 37/82/55
f 34/53/56 36/86/56 38/62/56
f 63/110/57 54/111/57 45/100/57
f 55/112/58 64/113/58 46/72/58
f 55/112/59 63/104/59 64/113/59
f 40/73/60 43/106/60 39/87/60
f 1/7/3 7/20/3 12/8/3
f 6/10/3 5/13/3 11/11/3
f 5/13/4 9/48/4 28/14/4
f 16/16/61 13/12/61 20/17/61
f 7/20/3 3/57/3 15/21/3
f 3/22/3 35/61/3 51/23/3
f 38/25/3 2/63/3 16/26/3
f 4/28/3 1/7/3 14/9/3
f 2/30/3 6/10/3 13/12/3
f 5/31/3 4/114/3 10/32/3
f 24/115/7 20/36/7 25/35/7
f 20/36/7 19/116/7 23/34/7
f 19/116/7 22/117/7 23/34/7
f 17/38/8 21/40/8 19/116/8
f 19/116/8 20/36/8 17/38/8
f 11/11/62 18/65/62 20/17/62
f 14/9/9 12/8/9 19/39/9
f 15/21/9 22/41/9 19/39/9
f 51/2/11 53/5/11 25/4/11
f 22/41/12 31/55/12 71/1/12
f 10/29/63 14/9/63 21/40/63
f 27/43/64 28/118/64 29/44/64
f 4/28/15 26/64/15 29/46/15
f 8/47/16 29/46/16 28/14/16
f 2/30/65 30/19/65 67/52/65
f 3/57/66 33/60/66 70/58/66
f 12/8/67 13/12/67 51/2/67
f 13/12/68 16/16/68 53/5/68
f 51/2/69 13/12/69 53/5/69
f 12/8/23 14/9/23 10/29/23
f 10/29/23 11/11/23 13/12/23
f 69/6/70 30/49/70 24/18/70
f 18/65/29 27/15/29 26/45/29
f 8/47/71 9/48/71 5/13/71
f 32/68/3 49/88/3 47/69/3
f 41/71/3 48/78/3 46/72/3
f 40/73/33 64/113/33 65/74/33
f 52/76/38 61/80/38 57/77/38
f 42/70/3 47/69/3 50/81/3
f 35/83/3 51/2/3 53/5/3
f 37/84/3 50/119/3 51/23/3
f 38/25/3 53/27/3 52/85/3
f 39/87/3 45/100/3 49/88/3
f 36/89/3 52/76/3 48/78/3
f 40/90/3 46/120/3 45/91/3
f 56/95/36 57/97/36 60/93/36
f 57/97/36 61/121/36 62/122/36
f 60/93/36 57/97/36 62/122/36
f 56/95/37 58/101/37 54/96/37
f 54/96/37 55/123/37 57/97/37
f 57/77/72 55/112/72 46/72/72
f 49/88/39 58/101/39 56/98/39
f 56/98/73 59/99/73 50/81/73
f 51/2/40 60/66/40 62/67/40
f 71/1/41 72/108/41 59/99/41
f 45/100/74 54/111/74 58/101/74
f 66/102/75 65/124/75 64/103/75
f 66/105/44 63/110/44 39/87/44
f 65/74/45 66/105/45 43/106/45
f 38/62/47 69/6/47 67/52/47
f 67/52/76 68/79/76 36/89/76
f 37/82/77 72/109/77 70/58/77
f 33/60/47 70/58/47 71/1/47
f 52/76/78 48/78/78 53/5/78
f 48/78/79 47/69/79 51/2/79
f 47/69/80 50/81/80 51/2/80
f 45/100/53 49/88/53 47/69/53
f 47/69/53 48/78/53 45/100/53
f 61/80/81 68/107/81 69/6/81
f 55/112/59 54/111/59 63/104/59
f 40/73/82 44/75/82 43/106/82
